<mxfile host="app.diagrams.net" modified="2024-05-02T07:56:34.578Z" agent="Mozilla/5.0 (Windows NT 10.0; Win64; x64) AppleWebKit/537.36 (KHTML, like Gecko) Chrome/124.0.0.0 Safari/537.36" etag="_3EC0ALs85CzLcKEFvK_" version="23.0.0" type="github">
  <diagram name="Page-1" id="e3a06f82-3646-2815-327d-82caf3d4e204">
    <mxGraphModel dx="2515" dy="943" grid="1" gridSize="10" guides="1" tooltips="1" connect="1" arrows="1" fold="1" page="1" pageScale="1.5" pageWidth="1169" pageHeight="826" background="none" math="0" shadow="0">
      <root>
        <mxCell id="0" style=";html=1;" />
        <mxCell id="1" style=";html=1;" parent="0" />
        <mxCell id="6a7d8f32e03d9370-13" value="" style="verticalLabelPosition=bottom;aspect=fixed;html=1;verticalAlign=top;strokeColor=none;shape=mxgraph.citrix.router;fillColor=#66B2FF;gradientColor=#0066CC;fontSize=14;" parent="1" vertex="1">
          <mxGeometry x="858.5" y="120" width="55" height="36.5" as="geometry" />
        </mxCell>
        <mxCell id="6a7d8f32e03d9370-62" value="TOC Network Architecture" style="text;strokeColor=none;fillColor=none;html=1;fontSize=24;fontStyle=1;verticalAlign=middle;align=center;" parent="1" vertex="1">
          <mxGeometry x="455.5" y="30" width="861" height="40" as="geometry" />
        </mxCell>
        <mxCell id="Q8g_z11zS8lW5ispTzay-1" value="Server&lt;br&gt;192.168.0.20" style="verticalLabelPosition=bottom;sketch=0;aspect=fixed;html=1;verticalAlign=top;strokeColor=none;align=center;outlineConnect=0;shape=mxgraph.citrix.laptop_2;" vertex="1" parent="1">
          <mxGeometry x="568" y="356.5" width="116" height="86.5" as="geometry" />
        </mxCell>
        <mxCell id="Q8g_z11zS8lW5ispTzay-2" value="Simulator&lt;br&gt;192.168.0.12" style="verticalLabelPosition=bottom;sketch=0;aspect=fixed;html=1;verticalAlign=top;strokeColor=none;align=center;outlineConnect=0;shape=mxgraph.citrix.laptop_2;" vertex="1" parent="1">
          <mxGeometry x="428" y="356.5" width="116" height="86.5" as="geometry" />
        </mxCell>
        <mxCell id="Q8g_z11zS8lW5ispTzay-3" value="Simulator&lt;br&gt;192.168.0.11" style="verticalLabelPosition=bottom;sketch=0;aspect=fixed;html=1;verticalAlign=top;strokeColor=none;align=center;outlineConnect=0;shape=mxgraph.citrix.laptop_2;" vertex="1" parent="1">
          <mxGeometry x="288" y="356.5" width="116" height="86.5" as="geometry" />
        </mxCell>
        <mxCell id="Q8g_z11zS8lW5ispTzay-34" value="" style="edgeStyle=orthogonalEdgeStyle;rounded=0;orthogonalLoop=1;jettySize=auto;html=1;endArrow=none;endFill=0;" edge="1" parent="1" source="Q8g_z11zS8lW5ispTzay-8" target="Q8g_z11zS8lW5ispTzay-13">
          <mxGeometry relative="1" as="geometry">
            <mxPoint x="756" y="480" as="targetPoint" />
          </mxGeometry>
        </mxCell>
        <mxCell id="Q8g_z11zS8lW5ispTzay-8" value="TOC&lt;br&gt;192.168.0.1" style="verticalLabelPosition=bottom;sketch=0;aspect=fixed;html=1;verticalAlign=top;strokeColor=none;align=center;outlineConnect=0;shape=mxgraph.citrix.laptop_2;" vertex="1" parent="1">
          <mxGeometry x="698" y="356.5" width="116" height="86.5" as="geometry" />
        </mxCell>
        <mxCell id="Q8g_z11zS8lW5ispTzay-9" value="TOC&lt;br style=&quot;border-color: var(--border-color);&quot;&gt;192.168.0.5" style="verticalLabelPosition=bottom;sketch=0;aspect=fixed;html=1;verticalAlign=top;strokeColor=none;align=center;outlineConnect=0;shape=mxgraph.citrix.laptop_2;" vertex="1" parent="1">
          <mxGeometry x="1218" y="356.5" width="116" height="86.5" as="geometry" />
        </mxCell>
        <mxCell id="Q8g_z11zS8lW5ispTzay-10" value="TOC&lt;br style=&quot;border-color: var(--border-color);&quot;&gt;192.168.0.4" style="verticalLabelPosition=bottom;sketch=0;aspect=fixed;html=1;verticalAlign=top;strokeColor=none;align=center;outlineConnect=0;shape=mxgraph.citrix.laptop_2;" vertex="1" parent="1">
          <mxGeometry x="1085" y="356.5" width="116" height="86.5" as="geometry" />
        </mxCell>
        <mxCell id="Q8g_z11zS8lW5ispTzay-36" value="" style="edgeStyle=orthogonalEdgeStyle;rounded=0;orthogonalLoop=1;jettySize=auto;html=1;endArrow=none;endFill=0;" edge="1" parent="1" source="Q8g_z11zS8lW5ispTzay-11" target="Q8g_z11zS8lW5ispTzay-18">
          <mxGeometry relative="1" as="geometry">
            <mxPoint x="1016" y="480" as="targetPoint" />
          </mxGeometry>
        </mxCell>
        <mxCell id="Q8g_z11zS8lW5ispTzay-11" value="TOC&lt;br style=&quot;border-color: var(--border-color);&quot;&gt;192.168.0.3" style="verticalLabelPosition=bottom;sketch=0;aspect=fixed;html=1;verticalAlign=top;strokeColor=none;align=center;outlineConnect=0;shape=mxgraph.citrix.laptop_2;" vertex="1" parent="1">
          <mxGeometry x="958" y="356.5" width="116" height="86.5" as="geometry" />
        </mxCell>
        <mxCell id="Q8g_z11zS8lW5ispTzay-35" value="" style="edgeStyle=orthogonalEdgeStyle;rounded=0;orthogonalLoop=1;jettySize=auto;html=1;endArrow=none;endFill=0;" edge="1" parent="1" source="Q8g_z11zS8lW5ispTzay-12" target="Q8g_z11zS8lW5ispTzay-17">
          <mxGeometry relative="1" as="geometry">
            <mxPoint x="886" y="480" as="targetPoint" />
          </mxGeometry>
        </mxCell>
        <mxCell id="Q8g_z11zS8lW5ispTzay-12" value="TOC&lt;br style=&quot;border-color: var(--border-color);&quot;&gt;192.168.0.2" style="verticalLabelPosition=bottom;sketch=0;aspect=fixed;html=1;verticalAlign=top;strokeColor=none;align=center;outlineConnect=0;shape=mxgraph.citrix.laptop_2;" vertex="1" parent="1">
          <mxGeometry x="828" y="356.5" width="116" height="86.5" as="geometry" />
        </mxCell>
        <mxCell id="Q8g_z11zS8lW5ispTzay-13" value="Transmitter&lt;br&gt;192.168.168.53" style="verticalLabelPosition=bottom;sketch=0;aspect=fixed;html=1;verticalAlign=top;strokeColor=none;align=center;outlineConnect=0;shape=mxgraph.citrix.switch;" vertex="1" parent="1">
          <mxGeometry x="710" y="492" width="92" height="41.5" as="geometry" />
        </mxCell>
        <mxCell id="Q8g_z11zS8lW5ispTzay-14" value="Receiver&lt;br style=&quot;border-color: var(--border-color);&quot;&gt;192.168.168.58" style="verticalLabelPosition=bottom;sketch=0;aspect=fixed;html=1;verticalAlign=top;strokeColor=none;align=center;outlineConnect=0;shape=mxgraph.citrix.switch;" vertex="1" parent="1">
          <mxGeometry x="970" y="740" width="92" height="41.5" as="geometry" />
        </mxCell>
        <mxCell id="Q8g_z11zS8lW5ispTzay-15" value="Receiver&lt;br style=&quot;border-color: var(--border-color);&quot;&gt;192.168.168.57" style="verticalLabelPosition=bottom;sketch=0;aspect=fixed;html=1;verticalAlign=top;strokeColor=none;align=center;outlineConnect=0;shape=mxgraph.citrix.switch;" vertex="1" parent="1">
          <mxGeometry x="840" y="740" width="92" height="41.5" as="geometry" />
        </mxCell>
        <mxCell id="Q8g_z11zS8lW5ispTzay-16" value="Receiver&lt;br style=&quot;border-color: var(--border-color);&quot;&gt;192.168.168.56" style="verticalLabelPosition=bottom;sketch=0;aspect=fixed;html=1;verticalAlign=top;strokeColor=none;align=center;outlineConnect=0;shape=mxgraph.citrix.switch;" vertex="1" parent="1">
          <mxGeometry x="710" y="740" width="92" height="41.5" as="geometry" />
        </mxCell>
        <mxCell id="Q8g_z11zS8lW5ispTzay-38" value="" style="edgeStyle=orthogonalEdgeStyle;rounded=0;orthogonalLoop=1;jettySize=auto;html=1;endArrow=none;endFill=0;" edge="1" parent="1" source="Q8g_z11zS8lW5ispTzay-17" target="Q8g_z11zS8lW5ispTzay-37">
          <mxGeometry relative="1" as="geometry" />
        </mxCell>
        <mxCell id="Q8g_z11zS8lW5ispTzay-17" value="Transmitter&lt;br style=&quot;border-color: var(--border-color);&quot;&gt;192.168.168.54" style="verticalLabelPosition=bottom;sketch=0;aspect=fixed;html=1;verticalAlign=top;strokeColor=none;align=center;outlineConnect=0;shape=mxgraph.citrix.switch;" vertex="1" parent="1">
          <mxGeometry x="840" y="492" width="92" height="41.5" as="geometry" />
        </mxCell>
        <mxCell id="Q8g_z11zS8lW5ispTzay-18" value="Transmitter&lt;br style=&quot;border-color: var(--border-color);&quot;&gt;192.168.168.55" style="verticalLabelPosition=bottom;sketch=0;aspect=fixed;html=1;verticalAlign=top;strokeColor=none;align=center;outlineConnect=0;shape=mxgraph.citrix.switch;" vertex="1" parent="1">
          <mxGeometry x="970" y="492" width="92" height="41.5" as="geometry" />
        </mxCell>
        <mxCell id="Q8g_z11zS8lW5ispTzay-22" value="" style="endArrow=none;html=1;rounded=0;entryX=0.51;entryY=0.911;entryDx=0;entryDy=0;entryPerimeter=0;" edge="1" parent="1" source="Q8g_z11zS8lW5ispTzay-3" target="Q8g_z11zS8lW5ispTzay-28">
          <mxGeometry width="50" height="50" relative="1" as="geometry">
            <mxPoint x="859" y="276.5" as="sourcePoint" />
            <mxPoint x="879" y="186.5" as="targetPoint" />
          </mxGeometry>
        </mxCell>
        <mxCell id="Q8g_z11zS8lW5ispTzay-23" value="" style="endArrow=none;html=1;rounded=0;entryX=0.55;entryY=0.5;entryDx=0;entryDy=0;entryPerimeter=0;" edge="1" parent="1" source="Q8g_z11zS8lW5ispTzay-2" target="Q8g_z11zS8lW5ispTzay-28">
          <mxGeometry width="50" height="50" relative="1" as="geometry">
            <mxPoint x="859" y="316.5" as="sourcePoint" />
            <mxPoint x="889" y="186.5" as="targetPoint" />
          </mxGeometry>
        </mxCell>
        <mxCell id="Q8g_z11zS8lW5ispTzay-24" value="" style="endArrow=none;html=1;rounded=0;entryX=0.55;entryY=1;entryDx=0;entryDy=0;entryPerimeter=0;" edge="1" parent="1" source="Q8g_z11zS8lW5ispTzay-1" target="Q8g_z11zS8lW5ispTzay-28">
          <mxGeometry width="50" height="50" relative="1" as="geometry">
            <mxPoint x="779" y="316.5" as="sourcePoint" />
            <mxPoint x="909" y="186.5" as="targetPoint" />
          </mxGeometry>
        </mxCell>
        <mxCell id="Q8g_z11zS8lW5ispTzay-28" value="" style="shape=waypoint;sketch=0;fillStyle=solid;size=6;pointerEvents=1;points=[];fillColor=none;resizable=0;rotatable=0;perimeter=centerPerimeter;snapToPoint=1;" vertex="1" parent="1">
          <mxGeometry x="876" y="146.5" width="20" height="20" as="geometry" />
        </mxCell>
        <mxCell id="Q8g_z11zS8lW5ispTzay-29" value="" style="endArrow=none;html=1;rounded=0;entryX=0.547;entryY=0.74;entryDx=0;entryDy=0;entryPerimeter=0;" edge="1" parent="1" source="Q8g_z11zS8lW5ispTzay-8" target="Q8g_z11zS8lW5ispTzay-28">
          <mxGeometry width="50" height="50" relative="1" as="geometry">
            <mxPoint x="959" y="316.5" as="sourcePoint" />
            <mxPoint x="1009" y="266.5" as="targetPoint" />
          </mxGeometry>
        </mxCell>
        <mxCell id="Q8g_z11zS8lW5ispTzay-30" value="" style="endArrow=none;html=1;rounded=0;entryX=0.528;entryY=0.976;entryDx=0;entryDy=0;entryPerimeter=0;" edge="1" parent="1" source="Q8g_z11zS8lW5ispTzay-12" target="Q8g_z11zS8lW5ispTzay-28">
          <mxGeometry width="50" height="50" relative="1" as="geometry">
            <mxPoint x="959" y="316.5" as="sourcePoint" />
            <mxPoint x="1009" y="266.5" as="targetPoint" />
          </mxGeometry>
        </mxCell>
        <mxCell id="Q8g_z11zS8lW5ispTzay-31" value="" style="endArrow=none;html=1;rounded=0;entryX=0.728;entryY=0.413;entryDx=0;entryDy=0;entryPerimeter=0;" edge="1" parent="1" source="Q8g_z11zS8lW5ispTzay-11" target="Q8g_z11zS8lW5ispTzay-28">
          <mxGeometry width="50" height="50" relative="1" as="geometry">
            <mxPoint x="959" y="316.5" as="sourcePoint" />
            <mxPoint x="1009" y="266.5" as="targetPoint" />
          </mxGeometry>
        </mxCell>
        <mxCell id="Q8g_z11zS8lW5ispTzay-32" value="" style="endArrow=none;html=1;rounded=0;entryX=0.692;entryY=0.431;entryDx=0;entryDy=0;entryPerimeter=0;" edge="1" parent="1" source="Q8g_z11zS8lW5ispTzay-10" target="Q8g_z11zS8lW5ispTzay-28">
          <mxGeometry width="50" height="50" relative="1" as="geometry">
            <mxPoint x="959" y="316.5" as="sourcePoint" />
            <mxPoint x="1009" y="266.5" as="targetPoint" />
          </mxGeometry>
        </mxCell>
        <mxCell id="Q8g_z11zS8lW5ispTzay-33" value="" style="endArrow=none;html=1;rounded=0;" edge="1" parent="1" source="Q8g_z11zS8lW5ispTzay-9" target="Q8g_z11zS8lW5ispTzay-28">
          <mxGeometry width="50" height="50" relative="1" as="geometry">
            <mxPoint x="959" y="316.5" as="sourcePoint" />
            <mxPoint x="1009" y="266.5" as="targetPoint" />
          </mxGeometry>
        </mxCell>
        <mxCell id="Q8g_z11zS8lW5ispTzay-39" value="" style="edgeStyle=orthogonalEdgeStyle;rounded=0;orthogonalLoop=1;jettySize=auto;html=1;endArrow=none;endFill=0;" edge="1" parent="1" target="Q8g_z11zS8lW5ispTzay-15">
          <mxGeometry relative="1" as="geometry">
            <mxPoint x="886.04" y="719.95" as="sourcePoint" />
          </mxGeometry>
        </mxCell>
        <mxCell id="Q8g_z11zS8lW5ispTzay-37" value="Matrix switch" style="verticalLabelPosition=bottom;sketch=0;aspect=fixed;html=1;verticalAlign=top;strokeColor=none;align=center;outlineConnect=0;shape=mxgraph.citrix.chassis;" vertex="1" parent="1">
          <mxGeometry x="842.25" y="600" width="87.5" height="112.95" as="geometry" />
        </mxCell>
        <mxCell id="Q8g_z11zS8lW5ispTzay-42" value="" style="endArrow=none;html=1;rounded=0;" edge="1" parent="1" source="Q8g_z11zS8lW5ispTzay-37" target="Q8g_z11zS8lW5ispTzay-18">
          <mxGeometry width="50" height="50" relative="1" as="geometry">
            <mxPoint x="429" y="512" as="sourcePoint" />
            <mxPoint x="479" y="462" as="targetPoint" />
          </mxGeometry>
        </mxCell>
        <mxCell id="Q8g_z11zS8lW5ispTzay-45" value="" style="endArrow=none;html=1;rounded=0;" edge="1" parent="1" source="Q8g_z11zS8lW5ispTzay-37" target="Q8g_z11zS8lW5ispTzay-13">
          <mxGeometry width="50" height="50" relative="1" as="geometry">
            <mxPoint x="859" y="612" as="sourcePoint" />
            <mxPoint x="909" y="562" as="targetPoint" />
          </mxGeometry>
        </mxCell>
        <mxCell id="Q8g_z11zS8lW5ispTzay-46" value="" style="endArrow=none;html=1;rounded=0;" edge="1" parent="1" source="Q8g_z11zS8lW5ispTzay-16">
          <mxGeometry width="50" height="50" relative="1" as="geometry">
            <mxPoint x="819" y="757" as="sourcePoint" />
            <mxPoint x="842.25" y="699.9978365384616" as="targetPoint" />
          </mxGeometry>
        </mxCell>
        <mxCell id="Q8g_z11zS8lW5ispTzay-47" value="" style="endArrow=none;html=1;rounded=0;" edge="1" parent="1" source="Q8g_z11zS8lW5ispTzay-14">
          <mxGeometry width="50" height="50" relative="1" as="geometry">
            <mxPoint x="819" y="757" as="sourcePoint" />
            <mxPoint x="929.75" y="699.9978365384616" as="targetPoint" />
          </mxGeometry>
        </mxCell>
        <mxCell id="Q8g_z11zS8lW5ispTzay-48" value="TOC&lt;br style=&quot;border-color: var(--border-color);&quot;&gt;192.168.0.6" style="verticalLabelPosition=bottom;sketch=0;aspect=fixed;html=1;verticalAlign=top;strokeColor=none;align=center;outlineConnect=0;shape=mxgraph.citrix.laptop_2;" vertex="1" parent="1">
          <mxGeometry x="1349" y="356.5" width="116" height="86.5" as="geometry" />
        </mxCell>
        <mxCell id="Q8g_z11zS8lW5ispTzay-50" value="" style="endArrow=none;html=1;rounded=0;entryX=1.069;entryY=0.647;entryDx=0;entryDy=0;entryPerimeter=0;" edge="1" parent="1" source="Q8g_z11zS8lW5ispTzay-48" target="Q8g_z11zS8lW5ispTzay-28">
          <mxGeometry width="50" height="50" relative="1" as="geometry">
            <mxPoint x="710" y="320" as="sourcePoint" />
            <mxPoint x="760" y="270" as="targetPoint" />
          </mxGeometry>
        </mxCell>
      </root>
    </mxGraphModel>
  </diagram>
</mxfile>
